<svg width="344.25mm" height="107.05mm" version="1.1" viewBox="0 0 344.25 107.05" xmlns="http://www.w3.org/2000/svg">
 <g transform="translate(-121.57 -366.97)">
  <text font-family="'Noto Sans'" font-size="10.583px" font-stretch="condensed" font-style="italic" font-weight="100" style="line-height:1.25;shape-inside:url(#rect147);white-space:pre" xml:space="preserve"/>
  <g transform="translate(74.036 272.63)" fill="none" stroke-width="10">
   <g stroke="#999">
    <path d="m57.858 178.73 34.641-60v60l34.641-60v60"/>
    <path d="m161.78 178.73v-60l-17.273 29.918"/>
    <path d="m179.73 178.73 34.641-60h-33.97"/>
   </g>
   <path d="m55.859 177 34.641-60v60l34.641-60v60" stroke="#000"/>
   <path d="m159.78 177v-60l-17.273 29.918" stroke="#f00"/>
   <path d="m177.73 177 34.641-60h-33.97" stroke="#f00"/>
  </g>
  <g stroke-width=".26458" aria-label="Reflectors">
   <path d="m305.25 433.83 7.6708-36.271h4.9276q3.7084 0 5.842 1.9304 2.1336 1.8796 2.1336 5.7404 0 4.572-2.1844 7.9248t-6.4008 4.1656l3.81 16.51h-1.4224l-3.7084-16.307h-5.8928l-3.4544 16.307zm5.08-17.577h4.826q3.0988 0 5.1308-1.524 2.0828-1.5748 3.0988-4.064 1.0668-2.54 1.0668-5.334 0-3.3528-1.778-4.9276-1.7272-1.5748-5.2324-1.5748h-3.4036z" style="font-variant-caps:normal;font-variant-east-asian:normal;font-variant-ligatures:normal;font-variant-numeric:normal"/>
   <path d="m334.36 434.34q-3.048 0-4.9276-2.032t-1.8796-6.5024q0-3.9624 0.8636-7.4168 0.9144-3.5052 2.4892-6.1468t3.6068-4.1656q2.0828-1.524 4.3688-1.524 2.0828 0 3.4036 1.2192t1.3208 3.7084q0 2.6416-1.5748 4.826-1.524 2.1336-4.572 3.4544-2.9972 1.27-7.4676 1.27h-0.7112q-0.2032 1.016-0.3048 2.1844t-0.1016 2.4384q0 7.4168 5.7404 7.4168 1.4732 0 2.7432-0.4064 1.27-0.4572 2.286-1.016v1.4224q-0.8636 0.508-2.2352 0.8636-1.3716 0.4064-3.048 0.4064zm-4.8768-14.63h0.9144q3.9624 0 6.604-1.1176 2.6416-1.1684 3.9116-2.9972 1.3208-1.8796 1.3208-4.064 0-1.6764-0.8636-2.6924t-2.5908-1.016q-1.9812 0-3.8608 1.5748-1.8796 1.524-3.302 4.2164-1.4224 2.6416-2.1336 6.096z" style="font-variant-caps:normal;font-variant-east-asian:normal;font-variant-ligatures:normal;font-variant-numeric:normal"/>
   <path d="m340.35 446.03q-0.7112 0-1.3208-0.1524-0.6096-0.1016-0.9652-0.2032v-1.27q0.508 0.1524 1.0668 0.254 0.508 0.1016 1.2192 0.1016 1.8796 0 2.8448-1.524 0.9144-1.4732 1.4224-3.9116l6.604-30.988h-3.556l0.2032-1.016 3.6068-0.254 1.1176-5.08q0.8128-3.4544 2.1844-5.2324 1.4224-1.778 4.1656-1.778 0.8128 0 1.5748 0.2032 0.762 0.1524 1.2192 0.3556l-0.4572 1.2192q-1.1176-0.508-2.4892-0.508-2.1844 0-3.2512 1.5748-1.0668 1.524-1.6764 4.5212l-1.0668 4.7244h4.318l-0.254 1.27h-4.318l-6.6548 31.14q-0.6096 2.9464-1.8288 4.7244-1.2192 1.8288-3.7084 1.8288zm15.342-12.192 8.2296-38.608h1.3208l-8.2296 38.608z" style="font-variant-caps:normal;font-variant-east-asian:normal;font-variant-ligatures:normal;font-variant-numeric:normal"/>
   <path d="m372.41 434.34q-3.048 0-4.9276-2.032t-1.8796-6.5024q0-3.9624 0.8636-7.4168 0.9144-3.5052 2.4892-6.1468t3.6068-4.1656q2.0828-1.524 4.3688-1.524 2.0828 0 3.4036 1.2192t1.3208 3.7084q0 2.6416-1.5748 4.826-1.524 2.1336-4.572 3.4544-2.9972 1.27-7.4676 1.27h-0.7112q-0.2032 1.016-0.3048 2.1844t-0.1016 2.4384q0 7.4168 5.7404 7.4168 1.4732 0 2.7432-0.4064 1.27-0.4572 2.286-1.016v1.4224q-0.8636 0.508-2.2352 0.8636-1.3716 0.4064-3.048 0.4064zm-4.8768-14.63h0.9144q3.9624 0 6.604-1.1176 2.6416-1.1684 3.9116-2.9972 1.3208-1.8796 1.3208-4.064 0-1.6764-0.8636-2.6924t-2.5908-1.016q-1.9812 0-3.8608 1.5748-1.8796 1.524-3.302 4.2164-1.4224 2.6416-2.1336 6.096z" style="font-variant-caps:normal;font-variant-east-asian:normal;font-variant-ligatures:normal;font-variant-numeric:normal"/>
   <path d="m391.46 434.34q-6.7564 0-6.7564-8.6868 0-3.0988 0.7112-6.4516 0.762-3.3528 2.1844-6.1976 1.4732-2.8956 3.6576-4.6736t5.08-1.778q2.3368 0 4.0132 0.762l-0.4572 1.27q-0.8128-0.3556-1.778-0.5588-0.9144-0.2032-1.778-0.2032-2.4384 0-4.3688 1.6256-1.8796 1.5748-3.2512 4.2164-1.3208 2.6416-2.032 5.7404-0.6604 3.0988-0.6604 6.1468 0 7.5184 5.5372 7.5184 1.1684 0 2.1844-0.254t2.032-0.7112v1.3208q-0.8128 0.3556-1.8796 0.6096-1.016 0.3048-2.4384 0.3048z" style="font-variant-caps:normal;font-variant-east-asian:normal;font-variant-ligatures:normal;font-variant-numeric:normal"/>
   <path d="m404.06 434.34q-3.5052 0-3.5052-3.6576 0-0.762 0.1524-1.778t0.3556-2.1336l3.9624-18.44h-2.8448l0.254-1.1176 2.794-0.1524 1.7272-6.5532h1.0668l-1.4224 6.5532h4.7752l-0.254 1.27h-4.7752l-3.9116 18.491q-0.5588 2.4892-0.5588 3.7592 0 2.4892 2.3368 2.4892 0.8128 0 1.3716-0.1016 0.6096-0.1524 1.0668-0.3048v1.2192q-0.508 0.2032-1.1176 0.3048-0.6096 0.1524-1.4732 0.1524z" style="font-variant-caps:normal;font-variant-east-asian:normal;font-variant-ligatures:normal;font-variant-numeric:normal"/>
   <path d="m418.63 434.34q-3.0988 0-4.7752-2.0828t-1.6764-6.2484q0-2.2352 0.4064-4.826 0.4572-2.6416 1.3716-5.2324t2.286-4.7244 3.2004-3.4036q1.8796-1.27 4.2164-1.27 2.9464 0 4.572 2.1336 1.6764 2.1336 1.6764 6.1976 0 2.4892-0.4572 5.2324-0.4572 2.6924-1.3716 5.2324-0.9144 2.4892-2.286 4.572-1.3208 2.032-3.1496 3.2512-1.778 1.1684-4.0132 1.1684zm0.0508-1.27q1.9812 0 3.556-1.1684t2.7432-3.0988 1.9304-4.318q0.8128-2.4384 1.2192-4.9276t0.4064-4.6736q0-3.3528-1.27-5.1816-1.2192-1.8796-3.7084-1.8796-1.9304 0-3.556 1.2192-1.5748 1.2192-2.794 3.2004-1.1684 1.9812-2.032 4.4196-0.8128 2.3876-1.2192 4.8768-0.4064 2.4384-0.4064 4.4704 0 3.4544 1.27 5.2832 1.3208 1.778 3.8608 1.778z" style="font-variant-caps:normal;font-variant-east-asian:normal;font-variant-ligatures:normal;font-variant-numeric:normal"/>
   <path d="m432.45 433.83 5.6388-26.772h1.0668l-1.016 5.2832h0.1016q1.0668-2.286 2.8956-4.0132t4.318-1.7272q1.3208 0 2.1336 0.3556l-0.3048 1.2192q-0.6096-0.3048-1.8288-0.3048-1.7272 0-3.1496 1.0668-1.4224 1.016-2.4892 2.794-1.0668 1.7272-1.8288 3.8608-0.762 2.0828-1.2192 4.1656l-2.9972 14.072z" style="font-variant-caps:normal;font-variant-east-asian:normal;font-variant-ligatures:normal;font-variant-numeric:normal"/>
   <path d="m450.84 434.34q-1.9304 0-3.3528-0.4572t-2.2352-0.8636v-1.5748q1.016 0.6604 2.4384 1.1684 1.4224 0.4572 3.2004 0.4572 3.1496 0 4.6228-1.6256t1.4732-4.4704q0-2.0828-1.1176-3.4036t-2.8956-3.0988q-1.6256-1.524-2.8448-3.048-1.2192-1.5748-1.2192-4.1148 0-3.048 1.9812-4.8768 1.9812-1.8796 5.2324-1.8796 1.9812 0 3.3528 0.508 1.3716 0.4572 2.3368 0.9652l-0.7112 1.2192q-0.8128-0.508-2.0828-0.9652t-2.9464-0.4572q-2.6416 0-4.2164 1.4224t-1.5748 3.9624q0 1.9304 0.9652 3.302 1.016 1.3716 2.5908 2.8956 1.27 1.2192 2.286 2.286 1.0668 1.0668 1.6256 2.286 0.6096 1.2192 0.6096 2.9464 0 3.4544-1.9304 5.4356-1.8796 1.9812-5.588 1.9812z" style="font-variant-caps:normal;font-variant-east-asian:normal;font-variant-ligatures:normal;font-variant-numeric:normal"/>
  </g>
 </g>
</svg>