<?xml version="1.0" standalone="no"?>
<!DOCTYPE svg PUBLIC "-//W3C//DTD SVG 20010904//EN"
 "http://www.w3.org/TR/2001/REC-SVG-20010904/DTD/svg10.dtd">
<svg version="1.0" xmlns="http://www.w3.org/2000/svg"
 width="1454.000000pt" height="1454.000000pt" viewBox="0 0 1454.000000 1454.000000"
 preserveAspectRatio="xMidYMid meet">
<metadata>
Created by potrace 1.14, written by Peter Selinger 2001-2017
</metadata>
<g transform="translate(0.000000,1454.000000) scale(0.100000,-0.100000)"
fill="#000000" stroke="none">
<path d="M4069 10878 c-35 -61 -75 -129 -87 -152 -26 -45 -261 -451 -457 -791
-70 -121 -139 -240 -153 -265 -14 -25 -45 -78 -69 -118 -24 -41 -43 -78 -43
-83 0 -5 -4 -9 -10 -9 -5 0 -10 -4 -10 -10 0 -8 -72 -138 -100 -180 -6 -8 -13
-22 -17 -30 -4 -8 -32 -58 -63 -110 -31 -52 -59 -102 -63 -110 -4 -8 -17 -31
-29 -50 -12 -19 -31 -53 -43 -75 -12 -22 -59 -102 -104 -179 -44 -76 -81 -140
-81 -141 0 -2 -20 -36 -43 -77 -37 -62 -425 -732 -477 -823 -26 -46 -124 -214
-135 -233 -6 -9 -23 -39 -38 -67 -15 -27 -36 -65 -47 -83 -28 -46 -237 -407
-268 -462 -14 -25 -49 -85 -77 -135 -89 -151 -93 -159 -113 -195 -11 -19 -101
-176 -201 -348 -99 -171 -181 -317 -181 -322 0 -6 -4 -10 -10 -10 -5 0 -10 -4
-10 -9 0 -5 -52 -98 -115 -206 -63 -109 -115 -199 -115 -201 0 -2 -19 -34 -41
-71 -23 -38 -55 -92 -70 -120 l-29 -53 93 -54 c50 -30 108 -63 127 -75 19 -11
42 -24 50 -28 8 -4 92 -51 185 -105 94 -54 178 -104 189 -109 22 -13 16 -20
94 116 31 55 62 109 69 120 7 11 16 27 20 35 4 8 49 87 100 174 51 87 93 161
93 163 0 2 11 20 24 41 22 35 374 643 429 742 14 25 52 91 86 148 34 57 61
105 61 108 0 2 16 28 35 58 19 30 35 57 35 60 0 4 97 174 129 226 16 26 251
433 274 475 12 22 24 42 27 45 3 3 10 14 16 25 6 11 44 77 85 148 41 70 81
140 89 155 53 99 284 492 289 492 3 0 6 -1028 6 -2285 0 -1257 2 -2285 5
-2285 3 0 30 44 60 97 88 155 100 176 240 418 73 127 164 286 203 355 39 69
74 127 77 130 3 3 15 23 27 45 11 22 29 54 40 71 17 30 131 227 175 304 23 40
158 273 303 525 54 94 120 208 147 255 27 47 53 92 59 100 5 8 116 200 245
425 130 226 250 433 266 460 16 28 32 58 35 68 3 9 9 17 14 17 5 0 9 4 9 9 0
4 53 100 118 212 65 112 121 211 125 219 4 8 61 107 127 220 66 113 177 305
247 427 l128 222 3 -1579 2 -1580 384 0 385 0 0 3011 c0 2607 -2 3009 -15
2998 -8 -6 -14 -15 -14 -19 0 -4 -44 -84 -98 -177 -55 -94 -102 -177 -106
-184 -4 -8 -12 -23 -19 -34 -51 -86 -472 -814 -646 -1117 -20 -36 -73 -128
-132 -228 -21 -36 -52 -90 -69 -120 -16 -30 -35 -62 -40 -70 -5 -8 -32 -53
-58 -100 -27 -47 -84 -146 -127 -220 -125 -216 -146 -253 -167 -290 -16 -27
-472 -816 -564 -977 -11 -18 -46 -78 -78 -135 -32 -57 -97 -168 -143 -248 -80
-138 -92 -158 -117 -205 -6 -11 -16 -27 -22 -35 -6 -8 -25 -40 -41 -70 -35
-64 -149 -260 -180 -308 l-21 -34 0 2287 c0 1257 -2 2288 -4 2290 -2 3 -33
-45 -69 -107z"/>
<path d="M9436 10968 c-12 -21 -133 -229 -184 -318 -11 -19 -52 -91 -92 -160
-40 -69 -84 -145 -98 -170 -42 -74 -261 -454 -272 -470 -8 -14 -35 -60 -100
-175 -69 -122 -175 -304 -191 -327 -11 -15 -19 -29 -19 -31 0 -5 -15 -30 -345
-602 -137 -236 -264 -457 -283 -490 -18 -33 -42 -76 -54 -95 -31 -53 -198
-340 -220 -380 -114 -200 -153 -266 -161 -271 -5 -4 17 -22 50 -40 32 -19 66
-38 75 -44 10 -5 61 -35 115 -66 54 -31 169 -98 256 -148 86 -50 161 -91 165
-91 5 0 177 292 287 489 39 70 298 516 314 541 6 10 10 -547 10 -1567 l1
-1583 383 0 383 0 0 3010 c0 1656 -2 3010 -3 3010 -1 0 -9 -10 -17 -22z"/>
<path d="M10504 9951 c-2 -2 -4 -175 -4 -383 l0 -378 43 0 c23 -1 459 -1 970
-1 l927 0 -11 -22 c-14 -26 -533 -927 -687 -1192 -58 -99 -116 -200 -130 -225
-14 -25 -45 -78 -69 -118 -24 -41 -43 -76 -43 -78 0 -3 -16 -30 -35 -60 -19
-30 -35 -56 -35 -58 0 -3 -28 -53 -63 -113 -70 -120 -244 -418 -275 -473 -11
-19 -70 -123 -132 -230 -62 -107 -123 -213 -136 -236 -12 -22 -68 -118 -123
-213 -56 -95 -101 -174 -101 -175 0 -2 -25 -45 -55 -95 -30 -51 -55 -94 -55
-97 0 -3 -8 -18 -19 -32 -10 -15 -29 -47 -43 -72 -14 -25 -86 -151 -161 -281
-75 -130 -137 -242 -139 -249 -2 -7 20 -26 47 -43 144 -86 607 -349 609 -346
2 2 56 96 121 209 65 113 141 246 170 295 29 50 120 207 203 350 82 143 159
276 170 295 11 19 33 58 47 85 15 28 33 57 41 66 8 8 14 18 14 21 0 3 82 147
182 319 99 173 190 330 201 349 11 19 135 235 277 480 141 245 309 535 372
645 64 110 124 214 134 232 11 18 53 92 95 165 42 73 108 187 146 253 92 158
254 439 284 492 13 22 120 207 237 410 117 202 217 375 222 383 5 8 22 39 39
68 17 28 27 53 23 53 -21 4 -3254 3 -3258 0z"/>
</g>
</svg>
